<svg width="165" height="42" viewBox="0 0 165 42" fill="none" xmlns="http://www.w3.org/2000/svg">
<path d="M61.6952 31.22C60.7085 31.22 59.8018 30.94 58.9752 30.38C58.1485 29.82 57.4885 29.0067 56.9952 27.94C56.5018 26.86 56.2552 25.5467 56.2552 24C56.2552 22.4533 56.5018 21.1467 56.9952 20.08C57.4885 19 58.1485 18.18 58.9752 17.62C59.8018 17.06 60.7085 16.78 61.6952 16.78C62.5218 16.78 63.2752 16.96 63.9552 17.32C64.6485 17.6667 65.2418 18.18 65.7352 18.86C66.2418 19.5267 66.6085 20.34 66.8352 21.3L64.6752 21.92C64.4752 20.9467 64.1018 20.2067 63.5552 19.7C63.0218 19.1933 62.4152 18.94 61.7352 18.94C61.1618 18.94 60.6418 19.1267 60.1752 19.5C59.7218 19.8733 59.3552 20.44 59.0752 21.2C58.8085 21.9467 58.6752 22.88 58.6752 24C58.6752 25.12 58.8085 26.06 59.0752 26.82C59.3552 27.5667 59.7218 28.1267 60.1752 28.5C60.6418 28.8733 61.1618 29.06 61.7352 29.06C62.4152 29.06 63.0218 28.8067 63.5552 28.3C64.1018 27.7933 64.4752 27.0533 64.6752 26.08L66.8352 26.7C66.6085 27.6467 66.2418 28.46 65.7352 29.14C65.2418 29.82 64.6485 30.34 63.9552 30.7C63.2752 31.0467 62.5218 31.22 61.6952 31.22ZM75.8873 31.2C74.6873 31.2 73.7673 30.9133 73.1273 30.34C72.5007 29.7667 72.1873 28.92 72.1873 27.8V18.24H68.5873V16.46H74.4473V27.56C74.4473 28.16 74.5873 28.5933 74.8673 28.86C75.1607 29.1267 75.6073 29.26 76.2073 29.26C76.5273 29.26 76.8473 29.2267 77.1673 29.16C77.4873 29.0933 77.8407 28.9867 78.2273 28.84V30.74C77.9207 30.86 77.554 30.9667 77.1273 31.06C76.7007 31.1533 76.2873 31.2 75.8873 31.2ZM85.4595 19.02C85.0062 19.02 84.6195 18.86 84.2995 18.54C83.9929 18.22 83.8395 17.84 83.8395 17.4C83.8395 16.96 83.9929 16.5867 84.2995 16.28C84.6195 15.96 85.0062 15.8 85.4595 15.8C85.8995 15.8 86.2729 15.96 86.5795 16.28C86.8995 16.5867 87.0595 16.96 87.0595 17.4C87.0595 17.84 86.8995 18.22 86.5795 18.54C86.2729 18.86 85.8995 19.02 85.4595 19.02ZM88.0195 31.2C86.8062 31.2 85.8862 30.9133 85.2595 30.34C84.6329 29.7667 84.3195 28.92 84.3195 27.8V22.78H80.7195V20.98H86.5795V27.56C86.5795 28.16 86.7195 28.5933 86.9995 28.86C87.2929 29.1267 87.7329 29.26 88.3195 29.26C88.6529 29.26 88.9795 29.2267 89.2995 29.16C89.6195 29.0933 89.9729 28.9867 90.3595 28.84V30.74C90.0529 30.86 89.6862 30.9667 89.2595 31.06C88.8329 31.1533 88.4195 31.2 88.0195 31.2ZM97.7717 31.2C96.7984 31.2 95.9184 30.9733 95.1317 30.52C94.3451 30.0533 93.7184 29.4267 93.2517 28.64C92.7984 27.8533 92.5717 26.9733 92.5717 26C92.5717 25.0133 92.7851 24.1333 93.2117 23.36C93.6517 22.5867 94.2451 21.9733 94.9917 21.52C95.7517 21.0533 96.5984 20.82 97.5317 20.82C98.5051 20.82 99.3651 21.0467 100.112 21.5C100.872 21.9533 101.465 22.5667 101.892 23.34C102.332 24.1133 102.552 25 102.552 26V26.54H94.7917C94.8584 27.0867 95.0317 27.5733 95.3117 28C95.6051 28.4133 95.9717 28.74 96.4117 28.98C96.8651 29.22 97.3584 29.34 97.8917 29.34C98.4117 29.34 98.8917 29.24 99.3317 29.04C99.7851 28.84 100.158 28.56 100.452 28.2L101.952 29.54C101.378 30.1133 100.745 30.5333 100.052 30.8C99.3584 31.0667 98.5984 31.2 97.7717 31.2ZM94.8117 25.12H100.392C100.312 24.6267 100.138 24.2 99.8717 23.84C99.6184 23.4667 99.2917 23.18 98.8917 22.98C98.5051 22.7667 98.0651 22.66 97.5717 22.66C97.1051 22.66 96.6784 22.76 96.2917 22.96C95.9184 23.16 95.6051 23.4467 95.3517 23.82C95.0984 24.18 94.9184 24.6133 94.8117 25.12ZM105.124 31V20.98H107.384V22.48C108.157 21.3733 109.184 20.82 110.464 20.82C111.157 20.82 111.764 20.9733 112.284 21.28C112.804 21.5733 113.211 21.9933 113.504 22.54C113.811 23.0733 113.964 23.6933 113.964 24.4V31H111.684V25.04C111.684 24.3067 111.484 23.7267 111.084 23.3C110.684 22.86 110.151 22.64 109.484 22.64C109.057 22.64 108.664 22.7333 108.304 22.92C107.944 23.1067 107.637 23.38 107.384 23.74V31H105.124ZM123.256 31.2C122.003 31.2 121.049 30.9267 120.396 30.38C119.756 29.82 119.436 29.0067 119.436 27.94V22.78H116.236V20.98H119.436V18.22L121.696 17.74V20.98H125.936V22.78H121.696V27.52C121.696 28.1467 121.843 28.5933 122.136 28.86C122.443 29.1267 122.916 29.26 123.556 29.26C123.903 29.26 124.263 29.2333 124.636 29.18C125.023 29.1133 125.463 28.9933 125.956 28.82V30.74C125.529 30.8733 125.083 30.98 124.616 31.06C124.149 31.1533 123.696 31.2 123.256 31.2ZM128.688 31V17H131.088V22.9H135.888V17H138.288V31H135.888V25H131.088V31H128.688ZM144.52 31.16C143.84 31.16 143.234 31.0067 142.7 30.7C142.18 30.3933 141.767 29.9733 141.46 29.44C141.167 28.9067 141.02 28.2867 141.02 27.58V20.98H143.3V26.92C143.3 27.6667 143.5 28.26 143.9 28.7C144.3 29.1267 144.834 29.34 145.5 29.34C145.94 29.34 146.334 29.2533 146.68 29.08C147.04 28.8933 147.347 28.62 147.6 28.26V20.98H149.86V31H147.6V29.5C146.84 30.6067 145.814 31.16 144.52 31.16ZM153.013 31V16.6L155.273 16.22V22.06C155.633 21.6733 156.046 21.3733 156.513 21.16C156.979 20.9467 157.479 20.84 158.013 20.84C158.866 20.84 159.633 21.0733 160.313 21.54C161.006 21.9933 161.559 22.6067 161.973 23.38C162.386 24.1533 162.593 25.0267 162.593 26C162.593 26.96 162.386 27.8333 161.973 28.62C161.573 29.3933 161.033 30.0067 160.353 30.46C159.673 30.9133 158.906 31.14 158.053 31.14C157.479 31.14 156.953 31.0333 156.473 30.82C155.993 30.5933 155.573 30.2667 155.213 29.84V31H153.013ZM157.513 29.28C158.073 29.28 158.566 29.14 158.993 28.86C159.419 28.58 159.753 28.1933 159.993 27.7C160.233 27.1933 160.353 26.6267 160.353 26C160.353 25.3467 160.233 24.7733 159.993 24.28C159.753 23.7867 159.419 23.4 158.993 23.12C158.566 22.84 158.073 22.7 157.513 22.7C157.073 22.7 156.659 22.7933 156.273 22.98C155.886 23.1533 155.553 23.4 155.273 23.72V28.28C155.539 28.6 155.866 28.8467 156.253 29.02C156.639 29.1933 157.059 29.28 157.513 29.28Z" fill="#1A4CC7"/>
<path d="M8.78571 0C3.94186 0 0 4.037 0 9V33C0 37.963 3.94186 42 8.78571 42H32.2143C32.5442 42 32.8693 41.9784 33.1905 41.9414V0.0585999C32.8693 0.0215999 32.5442 1.00136e-05 32.2143 1.00136e-05L8.78571 0ZM35.1429 0.52539V10H41V9C41 5.09 38.5498 1.76439 35.1429 0.52539ZM17.5714 8C24.5688 8 30.2619 13.832 30.2619 21C30.2619 28.168 24.5688 34 17.5714 34C10.5741 34 4.88095 28.168 4.88095 21C4.88095 13.832 10.5741 8 17.5714 8ZM17.5714 10C11.6508 10 6.83333 14.935 6.83333 21C6.83333 23.814 7.87923 26.3772 9.58269 28.3242C11.6063 26.2252 14.4984 25 17.5714 25C20.6367 25 23.5394 26.2223 25.564 28.3203C27.2645 26.3733 28.3095 23.812 28.3095 21C28.3095 14.935 23.492 10 17.5714 10ZM35.1429 12V20H41V12H35.1429ZM17.5714 14.5C19.9934 14.5 21.9643 16.519 21.9643 19C21.9643 21.481 19.9934 23.5 17.5714 23.5C15.1495 23.5 13.1786 21.481 13.1786 19C13.1786 16.519 15.1495 14.5 17.5714 14.5ZM35.1429 22V30H41V22H35.1429ZM35.1429 32V41.4746C38.5498 40.2356 41 36.91 41 33V32H35.1429Z" fill="#1A4CC7"/>
</svg>
